<svg width="120" height="120" viewBox="0 0 120 120" fill="none" xmlns="http://www.w3.org/2000/svg">
<g clip-path="url(#clip0_840_792)">
<path d="M75.3181 14.952C62.1185 8.28219 46.2183 10.8324 35.7532 21.2978C23.5902 33.4604 22.3729 52.8541 32.9217 66.4089C33.2946 66.888 33.8519 67.1388 34.4153 67.1388C34.8213 67.1388 35.2303 67.0087 35.5755 66.7399C36.3998 66.0984 36.5479 64.9103 35.9067 64.086C26.5272 52.034 27.6112 34.7887 38.4278 23.972C47.7349 14.6645 61.8743 12.3962 73.6128 18.3275C74.5446 18.7991 75.6823 18.4246 76.1534 17.4924C76.6243 16.5603 76.2507 15.4229 75.3181 14.952Z" fill="#8971C9"/>
<path d="M90.4191 30.056C89.948 29.1239 88.811 28.7498 87.8782 29.2204C86.9461 29.6913 86.5718 30.8285 87.0427 31.7611C92.9698 43.4977 90.7003 57.6352 81.3954 66.9399C70.5785 77.7563 53.3334 78.8401 41.2813 69.4611C40.4568 68.8198 39.269 68.9679 38.6275 69.792C37.986 70.6163 38.1344 71.8044 38.9587 72.4458C45.1331 77.251 52.5185 79.6144 59.8804 79.6144C68.6805 79.6144 77.4473 76.2369 84.0701 69.6141C94.5328 59.1516 97.0843 43.2544 90.4191 30.056Z" fill="#8971C9"/>
<path d="M85.533 22.8533C85.0645 22.3231 84.5723 21.7995 84.07 21.2975C83.5678 20.7952 83.0444 20.303 82.5142 19.8345C81.7317 19.1426 80.5363 19.2167 79.8452 19.9993C79.1531 20.7816 79.2267 21.9767 80.0092 22.6683C80.4815 23.0855 80.9479 23.5243 81.3956 23.9717C81.8427 24.4194 82.2815 24.8855 82.6989 25.3578C83.0725 25.7806 83.5933 25.9965 84.1167 25.9965C84.5617 25.9965 85.0085 25.8402 85.3682 25.5223C86.151 24.8309 86.2246 23.6358 85.533 22.8533Z" fill="#8971C9"/>
<path d="M104.547 48.8462C105.808 46.7774 105.808 44.2077 104.547 42.1393L102.059 38.0596C101.731 37.5219 101.604 36.8835 101.702 36.2619L102.444 31.5502C102.822 29.1491 101.835 26.7695 99.8698 25.3395L96.0141 22.535C95.5043 22.164 95.142 21.6228 94.9936 21.0101L93.8707 16.3698C93.3007 14.0126 91.4822 12.1944 89.1253 11.6239L84.4847 10.5008C83.872 10.3524 83.3304 9.99005 82.9598 9.48028L80.1548 5.62363C78.7251 3.65816 76.3453 2.67121 73.9448 3.04949L69.2315 3.79105C68.6099 3.88879 67.9713 3.76222 67.4341 3.43457L63.3536 0.945969C61.285 -0.31544 58.7153 -0.315206 56.6467 0.945969L52.5667 3.43386C52.0295 3.76176 51.3913 3.88785 50.7691 3.79035L46.0572 3.04879C43.6567 2.67097 41.2766 3.65746 39.8469 5.62293L37.0424 9.47864C36.6714 9.98841 36.13 10.3508 35.5171 10.4991L30.8767 11.622C28.52 12.192 26.7013 14.0105 26.1308 16.3674L25.0077 21.008C24.8593 21.6207 24.4972 22.1623 23.9872 22.5329L20.1306 25.3379C18.1651 26.7673 17.1788 29.1467 17.5564 31.5479L18.298 36.2614C18.3957 36.8832 18.2691 37.5217 17.9415 38.0589L15.4531 42.1396C14.1922 44.2082 14.1922 46.7779 15.4534 48.8462L17.9413 52.9262C18.2689 53.4639 18.3957 54.1023 18.2977 54.7239L17.5562 59.4358C17.1781 61.8367 18.1646 64.2166 20.1301 65.6463L23.9858 68.4508C24.4956 68.8213 24.8579 69.363 25.0063 69.9756L26.1292 74.616C26.6992 76.9732 28.5177 78.7914 30.8746 79.3619L32.8124 79.8309L19.6981 109.084C19.4195 109.706 19.4966 110.429 19.9004 110.978C20.304 111.527 20.9713 111.817 21.6481 111.735L32.2002 110.474L38.2789 119.191C38.6347 119.7 39.2153 120 39.8296 120C39.8884 120 39.9479 119.997 40.007 119.992C40.6853 119.928 41.2771 119.504 41.5558 118.883L54.9491 89.0046L56.6463 90.0393C57.6806 90.6701 58.84 90.9853 59.9997 90.9853C61.1594 90.9853 62.3188 90.6698 63.3531 90.0393L65.1114 88.9673L78.5217 118.883C78.8004 119.504 79.3919 119.928 80.0704 119.992C80.1297 119.997 80.189 120 80.2479 120C80.8622 120 81.4429 119.701 81.7985 119.191L87.8772 110.474L98.4293 111.736C99.1057 111.816 99.7734 111.527 100.177 110.978C100.581 110.43 100.658 109.706 100.379 109.084L87.2583 79.815L89.1232 79.3638C91.4798 78.7938 93.2986 76.9753 93.8691 74.6184L94.9922 69.9778C95.1405 69.3651 95.5029 68.8234 96.0127 68.4529L99.8693 65.6479C101.835 64.2184 102.821 61.8391 102.443 59.4379L101.702 54.7244C101.604 54.1026 101.731 53.4641 102.058 52.9269L104.547 48.8462ZM39.4707 114.288L34.6534 107.38C34.254 106.807 33.5711 106.5 32.8778 106.584L24.5155 107.584L36.4637 80.9299C36.6821 81.0904 36.8781 81.2828 37.0396 81.5053L39.8446 85.3619C40.1111 85.7282 40.4106 86.0604 40.7371 86.3561L34.4481 100.385C34.021 101.338 34.4471 102.457 35.4001 102.884C35.6514 102.997 35.9141 103.05 36.1724 103.05C36.8947 103.05 37.5847 102.634 37.899 101.932L44.1658 87.9532C44.7824 88.0378 45.4173 88.0364 46.0546 87.9361L50.7679 87.1945C51.0501 87.1502 51.3353 87.1542 51.613 87.2001L39.4707 114.288ZM95.5624 107.583L87.1999 106.584C86.5059 106.501 85.8237 106.807 85.4243 107.38L80.6069 114.288L68.4595 87.1896C68.7142 87.1549 68.9742 87.1549 69.2313 87.1952L73.9429 87.9368C74.606 88.0411 75.2667 88.0378 75.9068 87.9424L82.1782 101.933C82.4929 102.635 83.1825 103.051 83.9048 103.051C84.1633 103.051 84.4261 102.998 84.6771 102.885C85.6301 102.458 86.0564 101.339 85.6291 100.386L79.3162 86.3032C79.6207 86.0205 79.9022 85.7076 80.1532 85.3626L82.9577 81.5069C83.1344 81.2639 83.351 81.0555 83.5943 80.887L95.5624 107.583ZM101.318 46.877L98.8291 50.9577C98.0358 52.2594 97.7288 53.8058 97.9657 55.3119L98.7073 60.0252C98.8631 61.0164 98.4558 61.9987 97.6446 62.5888L93.7877 65.3941C92.5533 66.2922 91.6753 67.604 91.3162 69.0878L90.1931 73.7285C89.9576 74.7014 89.2071 75.4521 88.234 75.6876L83.5933 76.8105C82.1093 77.1696 80.7972 78.0475 79.8991 79.2822L77.0946 83.1379C76.5044 83.9496 75.5224 84.3564 74.5307 84.2004L69.8189 83.4588C68.3125 83.2218 66.7659 83.5284 65.4639 84.3222L61.3842 86.8101C60.5303 87.3304 59.4691 87.3304 58.6157 86.8101L54.535 84.322C53.5202 83.703 52.3567 83.3805 51.1794 83.3805C50.8466 83.3805 50.5122 83.4063 50.1805 83.4585L45.467 84.2001C44.4756 84.3562 43.4936 83.9486 42.9034 83.1375L40.0982 79.2808C39.2 78.0464 37.8882 77.1684 36.4044 76.8093L31.7638 75.6862C30.7909 75.4506 30.0402 74.7002 29.8046 73.727L28.6817 69.0867C28.3227 67.6026 27.4449 66.2903 26.21 65.3922L22.3545 62.5874C21.5431 61.9973 21.136 61.0148 21.2921 60.0236L22.0337 55.3117C22.2706 53.8054 21.9641 52.259 21.1702 50.957L18.6823 46.8768C18.1618 46.0229 18.1618 44.9619 18.6823 44.1083L21.1707 40.0276C21.9643 38.7259 22.2711 37.1795 22.0342 35.6734L21.2926 30.9601C21.1367 29.9689 21.5441 28.9866 22.3552 28.3965L26.2121 25.5913C27.4466 24.6931 28.3246 23.3813 28.6836 21.8975L29.8067 17.2569C30.0423 16.284 30.7928 15.5333 31.7659 15.2977L36.4065 14.1748C37.8906 13.8158 39.2026 12.9378 40.1005 11.7031L42.9051 7.84739C43.4952 7.03598 44.4772 6.6284 45.4689 6.78473L50.1808 7.52629C51.6873 7.76372 53.234 7.45668 54.5357 6.66286L58.6155 4.17496C59.4693 3.65465 60.5306 3.65465 61.3839 4.17496L65.4646 6.66309C66.7664 7.45715 68.3132 7.76395 69.8191 7.52676L74.5326 6.7852C75.5236 6.62981 76.5061 7.03668 77.0962 7.84786L79.9015 11.7045C80.7996 12.939 82.1114 13.8169 83.5952 14.176L88.2358 15.2991C89.2087 15.5347 89.9594 16.2851 90.195 17.2583L91.3179 21.8987C91.6769 23.3827 92.5547 24.695 93.7896 25.5931L97.6453 28.3977C98.4567 28.9878 98.8638 29.9703 98.7077 30.9615L97.9662 35.6734C97.7292 37.1797 98.0358 38.7261 98.8296 40.0281L101.318 44.1083C101.838 44.9622 101.838 46.0232 101.318 46.877Z" fill="#8971C9"/>
<path d="M82.129 39.6087C81.7122 38.3257 80.6212 37.4299 79.2815 37.271L67.9024 35.9217L63.1028 25.5166C62.5377 24.2918 61.3488 23.5308 59.9997 23.5308C58.6509 23.5308 57.4616 24.2918 56.8966 25.5166L52.097 35.922L40.7179 37.2713C39.3782 37.4302 38.2869 38.3259 37.8704 39.6089C37.4537 40.8912 37.81 42.2574 38.8 43.1731L47.2129 50.9532L44.9797 62.1924C44.717 63.5157 45.2317 64.8301 46.3232 65.6227C46.9253 66.0601 47.624 66.2815 48.3271 66.2815C48.8987 66.2815 49.4729 66.1353 50.0005 65.84L59.9995 60.2433L69.9984 65.84C71.1757 66.499 72.5845 66.4158 73.676 65.6229C74.7675 64.8301 75.2821 63.5154 75.0192 62.1924L72.786 50.9534L81.199 43.1733C82.1894 42.2576 82.5457 40.8917 82.129 39.6087ZM69.4413 48.8953C68.9585 49.3418 68.7424 50.0072 68.8703 50.6522L71.1555 62.1533L60.9231 56.4258C60.6363 56.2653 60.318 56.1849 59.9995 56.1849C59.6809 56.1849 59.3629 56.265 59.0758 56.4258L48.8434 62.1533L51.1286 50.6522C51.257 50.007 51.0407 49.3418 50.5576 48.8953L41.9486 40.9336L53.5937 39.5529C54.2467 39.4756 54.8127 39.0642 55.0884 38.4673L59.9997 27.8194L64.911 38.4673C65.1867 39.0642 65.7524 39.4756 66.4056 39.5529L78.0504 40.9336L69.4413 48.8953Z" fill="#8971C9"/>
</g>
<defs>
<clipPath id="clip0_840_792">
<rect width="120" height="120" fill="white"/>
</clipPath>
</defs>
</svg>
