<svg width="112" height="120" viewBox="0 0 112 120" fill="none" xmlns="http://www.w3.org/2000/svg">
<path d="M95.4184 24.5858L71.4184 0.58575C71.2327 0.400035 71.0122 0.25272 70.7695 0.152217C70.5269 0.0517137 70.2668 -9.56887e-06 70.0041 1.32781e-09H10.0041C7.3529 0.00297764 4.81109 1.0575 2.93637 2.93222C1.06165 4.80694 0.00712803 7.34875 0.00415039 10V110C0.00712803 112.651 1.06165 115.193 2.93637 117.068C4.81109 118.943 7.3529 119.997 10.0041 120H86.0042C88.6554 119.997 91.1972 118.943 93.0719 117.068C94.9466 115.193 96.0012 112.651 96.0042 110V90.059L106.247 79.8165L109.075 76.9878C110.86 75.1984 111.901 72.7995 111.99 70.2735C112.078 67.7475 111.206 65.2818 109.55 63.3725C107.894 61.4631 105.576 60.2517 103.063 59.982C100.55 59.7122 98.0278 60.4041 96.0042 61.9185V26C96.0042 25.7374 95.9524 25.4773 95.8519 25.2346C95.7514 24.992 95.6041 24.7715 95.4184 24.5858ZM71.9209 6.745L89.1759 24H77.9209C76.3301 23.9982 74.8051 23.3655 73.6802 22.2407C72.5554 21.1158 71.9227 19.5908 71.9209 18V6.745ZM10.0041 116C8.41342 115.998 6.88837 115.365 5.76356 114.241C4.63874 113.116 4.006 111.591 4.00415 110V10C4.006 8.40927 4.63874 6.88422 5.76356 5.75941C6.88837 4.63459 8.41342 4.00185 10.0041 4H67.9209V18C67.9239 20.6513 68.9784 23.1931 70.8531 25.0678C72.7278 26.9425 75.2696 27.997 77.9209 28H92.0042V65.775L58.1637 99.6153C57.9442 99.8348 57.7792 100.103 57.6819 100.398H57.6804L52.4791 116H10.0041ZM60.4517 104.732L67.1889 111.469L57.0832 114.838L60.4517 104.732ZM92.0042 110C92.0023 111.591 91.3696 113.116 90.2447 114.241C89.1199 115.365 87.5949 115.998 86.0042 116H66.2459L71.5239 114.241V114.239C71.8185 114.141 72.0864 113.977 72.3062 113.758L92.0042 94.059V110ZM97.7614 65.675C98.8866 64.5498 100.413 63.9176 102.004 63.9176C103.595 63.9175 105.122 64.5497 106.247 65.6749C107.372 66.8001 108.004 68.3262 108.004 69.9175C108.004 71.5089 107.372 73.035 106.247 74.1603L104.832 75.5745L96.3474 67.0893L97.7614 65.675ZM102.004 78.402L70.8914 109.515L62.4062 101.03L93.5189 69.9168L102.004 78.402Z" fill="#8971C9"/>
<path d="M31.9209 38C31.9209 38.5304 32.1316 39.0391 32.5067 39.4142C32.8818 39.7893 33.3905 40 33.9209 40H81.9209C82.4513 40 82.96 39.7893 83.3351 39.4142C83.7102 39.0391 83.9209 38.5304 83.9209 38C83.9209 37.4696 83.7102 36.9609 83.3351 36.5858C82.96 36.2107 82.4513 36 81.9209 36H33.9209C33.3905 36 32.8818 36.2107 32.5067 36.5858C32.1316 36.9609 31.9209 37.4696 31.9209 38Z" fill="#8971C9"/>
<path d="M13.9209 52H53.9209C54.4513 52 54.96 51.7893 55.3351 51.4142C55.7102 51.0391 55.9209 50.5304 55.9209 50C55.9209 49.4696 55.7102 48.9609 55.3351 48.5858C54.96 48.2107 54.4513 48 53.9209 48H13.9209C13.3905 48 12.8818 48.2107 12.5067 48.5858C12.1316 48.9609 11.9209 49.4696 11.9209 50C11.9209 50.5304 12.1316 51.0391 12.5067 51.4142C12.8818 51.7893 13.3905 52 13.9209 52Z" fill="#8971C9"/>
<path d="M82.0041 60H45.9209C45.3905 60 44.8818 60.2107 44.5067 60.5858C44.1316 60.9609 43.9209 61.4696 43.9209 62C43.9209 62.5304 44.1316 63.0391 44.5067 63.4142C44.8818 63.7893 45.3905 64 45.9209 64H82.0041C82.5346 64 83.0433 63.7893 83.4183 63.4142C83.7934 63.0391 84.0041 62.5304 84.0041 62C84.0041 61.4696 83.7934 60.9609 83.4183 60.5858C83.0433 60.2107 82.5346 60 82.0041 60Z" fill="#8971C9"/>
<path d="M13.9209 76H49.9209C50.4513 76 50.96 75.7893 51.3351 75.4142C51.7102 75.0391 51.9209 74.5304 51.9209 74C51.9209 73.4696 51.7102 72.9609 51.3351 72.5858C50.96 72.2107 50.4513 72 49.9209 72H13.9209C13.3905 72 12.8818 72.2107 12.5067 72.5858C12.1316 72.9609 11.9209 73.4696 11.9209 74C11.9209 74.5304 12.1316 75.0391 12.5067 75.4142C12.8818 75.7893 13.3905 76 13.9209 76Z" fill="#8971C9"/>
<path d="M13.9209 40H25.9209C26.4513 40 26.96 39.7893 27.3351 39.4142C27.7102 39.0391 27.9209 38.5304 27.9209 38C27.9209 37.4696 27.7102 36.9609 27.3351 36.5858C26.96 36.2107 26.4513 36 25.9209 36H13.9209C13.3905 36 12.8818 36.2107 12.5067 36.5858C12.1316 36.9609 11.9209 37.4696 11.9209 38C11.9209 38.5304 12.1316 39.0391 12.5067 39.4142C12.8818 39.7893 13.3905 40 13.9209 40Z" fill="#8971C9"/>
<path d="M13.9209 64H37.9209C38.4513 64 38.96 63.7893 39.3351 63.4142C39.7102 63.0391 39.9209 62.5304 39.9209 62C39.9209 61.4696 39.7102 60.9609 39.3351 60.5858C38.96 60.2107 38.4513 60 37.9209 60H13.9209C13.3905 60 12.8818 60.2107 12.5067 60.5858C12.1316 60.9609 11.9209 61.4696 11.9209 62C11.9209 62.5304 12.1316 63.0391 12.5067 63.4142C12.8818 63.7893 13.3905 64 13.9209 64Z" fill="#8971C9"/>
<path d="M13.9209 88H25.9209C26.4513 88 26.96 87.7893 27.3351 87.4142C27.7102 87.0391 27.9209 86.5304 27.9209 86C27.9209 85.4696 27.7102 84.9609 27.3351 84.5858C26.96 84.2107 26.4513 84 25.9209 84H13.9209C13.3905 84 12.8818 84.2107 12.5067 84.5858C12.1316 84.9609 11.9209 85.4696 11.9209 86C11.9209 86.5304 12.1316 87.0391 12.5067 87.4142C12.8818 87.7893 13.3905 88 13.9209 88Z" fill="#8971C9"/>
<path d="M13.9209 28H37.9209C38.4513 28 38.96 27.7893 39.3351 27.4142C39.7102 27.0391 39.9209 26.5304 39.9209 26C39.9209 25.4696 39.7102 24.9609 39.3351 24.5858C38.96 24.2107 38.4513 24 37.9209 24H13.9209C13.3905 24 12.8818 24.2107 12.5067 24.5858C12.1316 24.9609 11.9209 25.4696 11.9209 26C11.9209 26.5304 12.1316 27.0391 12.5067 27.4142C12.8818 27.7893 13.3905 28 13.9209 28Z" fill="#8971C9"/>
<path d="M60.0041 86C60.0041 85.4696 59.7934 84.9609 59.4183 84.5858C59.0433 84.2107 58.5346 84 58.0041 84H33.9209C33.3905 84 32.8818 84.2107 32.5067 84.5858C32.1316 84.9609 31.9209 85.4696 31.9209 86C31.9209 86.5304 32.1316 87.0391 32.5067 87.4142C32.8818 87.7893 33.3905 88 33.9209 88H58.0041C58.5346 88 59.0433 87.7893 59.4183 87.4142C59.7934 87.0391 60.0041 86.5304 60.0041 86Z" fill="#8971C9"/>
<path d="M70.0042 72H58.0042C57.4737 72 56.965 72.2107 56.5899 72.5858C56.2149 72.9609 56.0042 73.4696 56.0042 74C56.0042 74.5304 56.2149 75.0391 56.5899 75.4142C56.965 75.7893 57.4737 76 58.0042 76H70.0042C70.5346 76 71.0433 75.7893 71.4184 75.4142C71.7934 75.0391 72.0042 74.5304 72.0042 74C72.0042 73.4696 71.7934 72.9609 71.4184 72.5858C71.0433 72.2107 70.5346 72 70.0042 72Z" fill="#8971C9"/>
</svg>
