<svg width="89" height="88" viewBox="0 0 89 88" fill="none" xmlns="http://www.w3.org/2000/svg">
<path d="M82.9105 22.0137C77.0355 11.8378 67.5495 4.55901 56.1999 1.51784C44.8506 -1.52332 32.996 0.0374798 22.8201 5.91236C12.6443 11.7872 5.3654 21.2734 2.32441 32.6229C-0.716587 43.9723 0.844044 55.8271 6.71892 66.0028C11.9888 75.1306 20.3646 82.0677 30.3035 85.5358C35.0148 87.1796 39.933 88 44.8437 88C50.183 88 55.5127 87.0296 60.5505 85.0934C61.4366 84.7529 61.8786 83.7586 61.538 82.8726C61.1973 81.9866 60.2028 81.544 59.3172 81.8852C45.9074 87.0392 31.3905 84.6974 20.5446 76.5564L22.0844 68.5186L22.8264 68.2776C25.6302 67.3667 27.1702 64.3444 26.2596 61.5404L25.7151 59.8648C25.5891 59.4771 25.5898 59.0671 25.7169 58.6797C26.1945 57.2236 26.0238 55.6305 25.2485 54.3084C24.4732 52.9865 23.166 52.0596 21.662 51.7655L17.7827 51.0076L10.2979 45.3167C9.84947 44.9757 9.26251 44.8762 8.7266 45.0502L4.34446 46.4736C4.25148 44.9063 4.2501 43.3395 4.33845 41.7809C4.51135 41.942 4.62393 42.0515 4.6932 42.1233C4.77896 42.2661 4.88518 42.3971 5.00962 42.5105C5.36747 42.8364 5.69162 42.9842 6.37225 42.9842C6.99771 42.9841 7.9236 42.8594 9.45243 42.6336C10.9024 42.4193 12.3448 42.1778 12.359 42.1754C12.937 42.0786 13.4257 41.6936 13.6557 41.1548C13.8856 40.6158 13.825 39.9969 13.4948 39.5125L11.3874 36.4215L14.4059 34.2631C14.607 34.1192 14.7747 33.9338 14.8976 33.7193L19.5766 25.5509L21.4626 23.53C23.3898 21.4644 23.9398 18.4423 22.8635 15.8304C22.2286 14.2899 21.1197 13.0074 19.7327 12.143C21.2349 10.9621 22.8366 9.87169 24.5388 8.88908C30.7844 5.28313 37.6003 3.53567 44.3446 3.46881L41.2756 7.31865L29.8948 11.3084C29.4326 11.4703 29.0614 11.822 28.8747 12.2747L25.6964 19.9795C25.4707 20.527 25.5424 21.1515 25.8863 21.6335L30.5283 28.1359C29.8635 28.7424 29.2164 29.6259 28.4435 30.7228C28.1045 31.2039 27.7845 31.6581 27.5633 31.9129C27.371 32.1346 27.1785 32.3511 26.9877 32.5656C25.9893 33.6888 24.957 34.8506 24.2236 36.4022C22.6111 39.8155 22.9368 43.7828 25.0735 46.7559C27.1396 49.6305 30.5459 51.0918 34.1814 50.6641C34.7737 50.5947 35.3259 50.4581 35.8603 50.3257C37.3338 49.9612 37.8006 49.9247 38.2732 50.3671C38.5032 50.5825 38.5243 50.6232 38.5197 51.3535C38.5164 51.8183 38.5128 52.3965 38.673 53.0567C38.9296 54.1128 39.5929 54.8428 40.1257 55.4292C40.3906 55.7206 40.6645 56.022 40.7489 56.2243C41.285 57.5089 41.0516 58.2203 40.5401 59.7792C40.4963 59.9126 40.4516 60.0487 40.4067 60.1883C39.6297 62.5937 40.7128 64.9797 41.6685 67.0845C41.9789 67.768 42.2719 68.4132 42.4639 68.9835C44.0092 73.569 45.1677 74.6191 46.0974 75.042C46.5843 75.2633 47.0882 75.3604 47.5973 75.3603C50.0749 75.3601 52.6603 73.0597 53.8479 71.6013C54.5939 70.6856 54.7776 69.7686 54.9116 69.0988C54.9785 68.7657 55.0311 68.5028 55.1315 68.3309C55.2851 68.0679 55.4661 67.8641 55.6952 67.6059C56.156 67.087 56.7296 66.4415 57.101 65.2712C57.3832 64.3822 57.5883 64.1643 58.2673 63.441C58.3856 63.3154 58.5116 63.181 58.6468 63.0339C60.9361 60.5429 60.3465 58.64 59.7221 56.6253C59.1967 54.9301 60.1157 53.8459 62.3377 51.7767C63.3009 50.8797 64.2967 49.9522 65.0666 48.8378C65.4035 48.35 66.4283 46.8662 65.7941 45.3955C65.1725 43.9534 63.5924 43.7111 62.3229 43.5165C61.8216 43.4395 61.0639 43.3233 60.8228 43.1657C59.7594 42.4705 59.1089 41.0195 58.4796 39.6161C58.3543 39.3369 58.2307 39.0612 58.1054 38.7936C57.882 38.3161 57.6587 37.7384 57.4224 37.1269C56.7971 35.5085 56.0885 33.6741 54.8821 32.3953C53.7977 31.2463 51.7536 30.6929 49.9501 30.2044C49.3436 30.0403 48.771 29.8852 48.3934 29.7458C48.077 29.629 47.7336 29.6078 47.406 29.6848C46.5282 29.8906 45.9806 30.1173 45.574 30.4431C45.4666 30.5293 45.1484 30.812 44.9621 31.2664C44.3329 30.9644 43.4677 30.3878 42.9352 30.0329C42.9242 30.0255 42.913 30.0181 42.902 30.0107C43.0814 29.2926 42.919 28.7163 42.7489 28.3564C41.7888 26.3255 38.6017 26.4845 37.973 26.538C37.6158 26.5679 37.1639 26.5839 36.686 26.6007C35.9352 26.6273 35.1054 26.6572 34.2843 26.7494L34.3266 26.6315C34.9498 24.895 36.6081 23.7283 38.453 23.7283H39.4301C40.379 23.7283 41.1487 22.9586 41.1487 22.0097C41.1487 21.0608 40.379 20.2911 39.4301 20.2911H38.453C35.714 20.2911 33.2058 21.7327 31.8 24.0016L29.2365 20.4106L31.7586 14.2971L42.8795 10.3983C43.1844 10.2914 43.4532 10.1006 43.6548 9.8478L48.5985 3.6467C61.2303 4.84828 73.1207 11.9306 79.9342 23.7319C81.749 26.8754 83.0915 30.1846 83.9841 33.5694L83.2555 34.2191C82.3045 35.0676 81.7473 36.2847 81.726 37.5585C81.7258 37.5724 81.7254 37.5861 81.7249 37.5999L80.538 34.3356C80.3611 33.8485 80.1005 33.4018 79.764 33.008L77.6467 30.5291C76.8258 29.5681 75.6306 29.0173 74.3671 29.0173H71.7754C70.8553 29.0173 70.0145 29.5212 69.5805 30.3319C69.1466 31.1429 69.194 32.1222 69.7043 32.8874L69.9666 33.2812C68.2918 34.7213 66.3548 35.8737 64.2923 36.651L60.7396 29.8459V28.3277C60.7396 27.8581 60.5475 27.4087 60.2077 27.0847L57.0085 24.0306C56.832 23.8622 56.6216 23.7333 56.3915 23.6523L53.5117 22.6403C52.6157 22.3251 51.635 22.7966 51.3205 23.6919C51.0058 24.5875 51.4765 25.5684 52.372 25.8831L54.9027 26.7726L57.3024 29.0632V30.2677C57.3024 30.5446 57.3695 30.8175 57.4977 31.0631L61.9453 39.5825C62.3453 40.349 63.2531 40.6993 64.0633 40.3996L65.3584 39.9221C68.3671 38.8125 71.1558 37.0275 73.4232 34.7605C74.0024 34.1811 74.0925 33.2738 73.6378 32.5919L73.5464 32.4546H74.3671C74.6237 32.4546 74.8666 32.5665 75.0333 32.7617L77.1506 35.2407C77.2189 35.3206 77.2716 35.411 77.3077 35.5102L79.6444 41.9354C79.8451 42.4875 80.314 42.8986 80.887 43.0258C81.0108 43.0532 81.1354 43.0666 81.2593 43.0666C81.7102 43.0666 82.149 42.889 82.4745 42.5631L83.5867 41.4509C84.291 40.7464 84.7759 39.8551 85.0076 38.8669C86.7277 52.6522 81.3224 66.9124 69.8971 75.8799C69.1503 76.4658 69.0201 77.546 69.6063 78.2928C70.1923 79.0396 71.2723 79.1699 72.0193 78.5836C80.2679 72.1096 85.9347 62.8498 87.9757 52.5099C90.0358 42.0704 88.2371 31.2396 82.9105 22.0137ZM8.9332 48.5972L16.0201 53.9856C16.2297 54.145 16.4727 54.2539 16.7309 54.3043L21.0023 55.1389C21.5475 55.2455 22.0023 55.5679 22.2833 56.0471C22.5643 56.5261 22.6234 57.0804 22.4505 57.6083C22.0947 58.6933 22.093 59.8409 22.4459 60.9267L22.9904 62.6021C23.3158 63.6035 22.7654 64.683 21.7642 65.0084L20.0563 65.5634C19.4604 65.7569 19.0173 66.2595 18.8996 66.8744L17.5249 74.0501C14.5028 71.2841 11.8494 68.015 9.69564 64.2844C7.068 59.7337 5.42625 54.8797 4.70265 49.9717L8.9332 48.5972ZM18.9496 21.1849L16.9278 23.351C16.8376 23.4478 16.7587 23.5547 16.6929 23.6695L12.1017 31.6851L8.02123 34.6029C7.26119 35.1464 7.07454 36.197 7.60082 36.9691L9.1269 39.2076C8.24724 39.3386 7.45782 39.4465 6.93291 39.5037C6.83202 39.407 6.72649 39.3088 6.61735 39.2074C6.2088 38.8279 5.64109 38.3211 4.79478 37.5805C6.19058 28.9415 10.3534 20.8028 16.9005 14.5904C18.1542 14.9852 19.183 15.9203 19.6856 17.1401C20.251 18.5121 19.9619 20.0998 18.9496 21.1849ZM32.9626 30.5767C33.7292 30.1453 35.5084 30.0822 36.8075 30.0361C37.3281 30.0178 37.82 30.0002 38.2593 29.9634C38.4912 29.944 38.7486 29.9476 38.9915 29.9665C38.883 30.245 38.8478 30.5506 38.8949 30.8538C38.9776 31.3871 39.3064 31.8503 39.7821 32.1048C40.1046 32.2774 40.5533 32.5766 41.0284 32.8934C42.3716 33.7889 43.8942 34.8038 45.3246 34.8949C46.6254 34.9793 47.3491 34.238 47.6592 33.9223C47.6839 33.8972 47.7073 33.8721 47.7321 33.8492C47.9067 33.7069 48.0703 33.5161 48.192 33.286C48.4668 33.3645 48.7556 33.4427 49.0515 33.523C50.0692 33.7985 51.9635 34.3114 52.382 34.7548C53.1253 35.5429 53.7047 37.0428 54.2161 38.3661C54.4744 39.0349 54.7185 39.666 54.9923 40.2512C55.1098 40.5023 55.2255 40.761 55.3431 41.023C56.1361 42.7919 57.035 44.797 58.942 46.0434C59.8067 46.6087 60.8666 46.7712 61.802 46.9147C61.9151 46.932 62.0447 46.952 62.1763 46.9736C61.6212 47.7481 60.8307 48.4841 59.9956 49.2618C57.8679 51.2432 55.22 53.7093 56.4395 57.6433C57.0151 59.501 57.0419 59.7017 56.1163 60.7086C55.9902 60.8459 55.8726 60.971 55.7624 61.0882C54.9697 61.9321 54.3436 62.5987 53.8252 64.2315C53.6747 64.7057 53.4796 64.9254 53.1253 65.3241C52.8421 65.6431 52.4892 66.0405 52.1639 66.5974C51.7741 67.2646 51.6452 67.9071 51.5419 68.4232C51.4399 68.9311 51.3822 69.186 51.1828 69.4307C50.7289 69.988 49.8822 70.7971 49.0131 71.3494C48.2052 71.8623 47.7336 71.9324 47.5729 71.9228C47.3895 71.7261 46.7252 70.8652 45.7215 67.8861C45.474 67.1511 45.1305 66.3949 44.7985 65.6636C44.0665 64.0514 43.3097 62.3842 43.6779 61.2448C43.7213 61.1104 43.7643 60.9791 43.8066 60.8507C44.3947 59.058 44.9499 57.3652 43.9214 54.9005C43.6082 54.15 43.1096 53.6015 42.6702 53.1175C42.3857 52.8045 42.0634 52.4498 42.0138 52.2456C41.9533 51.9965 41.9551 51.709 41.9574 51.3761C41.9632 50.478 41.9722 49.121 40.6231 47.8578C38.7211 46.0775 36.5033 46.6259 35.0354 46.9889C34.5846 47.1003 34.1587 47.2058 33.7813 47.2502C31.3667 47.5331 29.2111 46.6221 27.8653 44.7494C26.4575 42.7905 26.2531 40.1545 27.3321 37.8702C27.8545 36.7649 28.6436 35.8768 29.5572 34.849C29.7568 34.6244 29.9582 34.3978 30.1597 34.1658C30.4948 33.7794 30.8637 33.2562 31.2537 32.7023C31.7193 32.0414 32.5862 30.8108 32.9626 30.5767Z" fill="#D5CDFD"/>
<path d="M71.2793 59.1721L70.4524 56.0553C70.2718 55.3747 69.6943 54.8731 68.9953 54.7896C68.2954 54.7078 67.6167 55.0577 67.2806 55.6767C67.0923 56.0238 66.9226 56.3917 66.7586 56.7473C66.4828 57.3456 66.1975 57.9643 65.9006 58.3058C65.7339 58.4976 65.3056 58.7044 64.8917 58.9041C63.9022 59.3816 62.547 60.0356 62.0293 61.6859C61.7079 62.7096 61.8279 63.5195 61.9155 64.1108C61.9913 64.6235 62.0089 64.8012 61.8715 65.1236L61.8543 65.1637C61.3073 66.4474 60.2894 68.8373 61.7167 70.8691C62.735 72.319 63.8058 72.6918 64.6379 72.6918C64.8003 72.6923 64.954 72.6781 65.0961 72.6549C66.8492 72.3683 68.1672 70.5447 69.2441 66.9154L71.2657 60.1021C71.3556 59.7991 71.3604 59.4773 71.2793 59.1721ZM65.9491 65.9376C65.4001 67.788 64.9144 68.6519 64.6341 69.0348C64.6018 68.9936 64.5667 68.9468 64.5292 68.8934C64.2008 68.4255 64.6917 67.2733 65.0165 66.5107L65.0339 66.4704C65.5578 65.2408 65.4177 64.2966 65.3158 63.607C65.2503 63.1654 65.2269 62.9757 65.3089 62.715C65.3763 62.5006 65.779 62.2927 66.3857 61.9998C66.6547 61.8698 66.9508 61.727 67.2497 61.5541L65.9491 65.9376Z" fill="#D5CDFD"/>
</svg>
