<svg width="89" height="88" viewBox="0 0 89 88" fill="none" xmlns="http://www.w3.org/2000/svg">
<path d="M88.5862 53.1L78.8794 35.8212C79.5143 34.2864 79.8668 32.6063 79.8668 30.8448C79.8668 24.2251 74.9159 18.7435 68.5232 17.8991V11.0001C68.5232 4.93464 63.5887 0 57.5233 0H11.8046C5.73915 0.000171879 0.804688 4.93464 0.804688 11.0001C0.804688 11.9492 1.57436 12.7189 2.52347 12.7189H7.33591V18.7344C7.33591 19.6835 8.10558 20.4532 9.05469 20.4532C10.0038 20.4532 10.7735 19.6835 10.7735 18.7344V12.7189H48.2422C49.1913 12.7189 49.961 11.9492 49.961 11.0001C49.961 6.83012 53.3535 3.43757 57.5235 3.43757C61.6934 3.43757 65.086 6.82994 65.086 11.0001V17.8991C58.6933 18.7437 53.7423 24.2253 53.7423 30.8448C53.7423 32.7176 54.1414 34.4981 54.8545 36.1098L45.0552 53.0825C44.7056 53.688 44.7577 54.4452 45.187 54.9971C45.6162 55.5491 46.3369 55.7863 47.01 55.5962L53.4637 53.7771L55.1149 60.2756C55.2868 60.9516 55.8499 61.4566 56.5403 61.5541C56.6211 61.5654 56.7015 61.5711 56.7813 61.5711C57.3854 61.5711 57.9528 61.2522 58.2641 60.7206L65.0861 49.0669V76.9999C65.0861 79.9276 66.2379 82.5894 68.1095 84.5624H18.336C14.166 84.5624 10.7735 81.1699 10.7735 76.9999V33.8594C10.7735 32.9103 10.0038 32.1406 9.05469 32.1406C8.10558 32.1406 7.33591 32.9103 7.33591 33.8594V76.9999C7.33591 83.0654 12.2704 87.9998 18.336 87.9998C18.336 87.9998 75.8218 87.9998 76.0858 87.9998C82.1513 87.9998 87.0859 83.0654 87.0859 76.9999C87.0859 76.0508 86.3162 75.2812 85.3671 75.2812H68.5234V48.8661L75.3624 60.7117C75.6723 61.2483 76.2426 61.5713 76.8504 61.5711C76.9286 61.5711 77.0073 61.5658 77.0862 61.5549C77.7789 61.459 78.3445 60.9532 78.5167 60.2756L80.168 53.7771L86.6215 55.5962C87.2911 55.7853 88.0084 55.5515 88.4383 55.0051C88.8685 54.4582 88.9269 53.7064 88.5862 53.1ZM46.6587 9.28128H4.43923C5.21939 5.93635 8.22555 3.43757 11.8048 3.43757H49.5467C48.049 5.01645 47.0124 7.03637 46.6587 9.28128ZM83.4514 78.7187C82.6712 82.0637 79.6651 84.5624 76.0858 84.5624C72.5068 84.5624 69.5007 82.0635 68.7203 78.7187H83.4514ZM57.4143 55.3675L56.3605 51.2209C56.2462 50.7716 55.9556 50.3874 55.5541 50.1558C55.1526 49.9241 54.6744 49.8642 54.2284 49.9899L50.1452 51.1408L56.9327 39.3846C58.8019 41.5424 61.3625 43.084 64.2688 43.6582L57.4143 55.3675ZM66.8046 40.4699C61.4973 40.4699 57.1795 36.1523 57.1795 30.8448C57.1795 25.5376 61.4971 21.2198 66.8046 21.2198C72.1118 21.2198 76.4296 25.5374 76.4296 30.8448C76.4296 36.1523 72.1118 40.4699 66.8046 40.4699ZM79.4028 49.9899C78.9567 49.8642 78.4786 49.9239 78.0771 50.1558C77.6756 50.3876 77.3849 50.7716 77.2706 51.2209L76.2259 55.3324L69.4711 43.6328C72.4056 43.0216 74.9814 41.4226 76.8354 39.2011L83.5536 51.16L79.4028 49.9899Z" fill="#D5CDFD"/>
<path d="M34.6215 46.9214H19.7105C18.7614 46.9214 17.9917 47.6911 17.9917 48.6402C17.9917 49.5893 18.7614 50.359 19.7105 50.359H34.6215C35.5706 50.359 36.3403 49.5893 36.3403 48.6402C36.3403 47.6911 35.5706 46.9214 34.6215 46.9214Z" fill="#D5CDFD"/>
<path d="M34.6215 55.3442H19.7105C18.7614 55.3442 17.9917 56.1139 17.9917 57.063C17.9917 58.0121 18.7614 58.7818 19.7105 58.7818H34.6215C35.5706 58.7818 36.3403 58.0121 36.3403 57.063C36.3403 56.1139 35.5706 55.3442 34.6215 55.3442Z" fill="#D5CDFD"/>
<path d="M28.5377 20.0415H19.7105C18.7614 20.0415 17.9917 20.8112 17.9917 21.7603C17.9917 22.7094 18.7614 23.4791 19.7105 23.4791H28.5377C29.4868 23.4791 30.2564 22.7094 30.2564 21.7603C30.2564 20.8112 29.4868 20.0415 28.5377 20.0415Z" fill="#D5CDFD"/>
<path d="M44.827 37.6401H19.7105C18.7614 37.6401 17.9917 38.4098 17.9917 39.3589C17.9917 40.308 18.7614 41.0777 19.7105 41.0777H44.827C45.7761 41.0777 46.5457 40.308 46.5457 39.3589C46.5457 38.4096 45.7761 37.6401 44.827 37.6401Z" fill="#D5CDFD"/>
<path d="M54.7167 70.1816H46.5435C45.5944 70.1816 44.8247 70.9513 44.8247 71.9004C44.8247 72.8495 45.5944 73.6192 46.5435 73.6192H54.7167C55.6658 73.6192 56.4355 72.8495 56.4355 71.9004C56.4355 70.9513 55.6658 70.1816 54.7167 70.1816Z" fill="#D5CDFD"/>
</svg>
