<svg width="90" height="88" viewBox="0 0 90 88" fill="none" xmlns="http://www.w3.org/2000/svg">
<path d="M82.4229 15.8125C78.5714 15.8125 75.4379 18.8966 75.4379 22.6875C75.4379 24.6546 76.2906 26.4914 77.7335 27.7789L74.848 33.7045C73.5312 33.2413 72.1321 33 70.723 33C63.9829 33 58.4993 38.3972 58.4993 45.0312C58.4993 46.1532 58.6554 47.2494 58.96 48.3085L56.6254 49.2071C55.7271 49.5527 55.2838 50.5498 55.6351 51.4337C55.9873 52.3204 57.0015 52.7532 57.8974 52.4084L60.3851 51.4509C62.6046 54.9041 66.5032 57.0625 70.723 57.0625C71.066 57.0625 71.4046 57.0449 71.7404 57.0176L72.7396 61.2782C70.506 62.4265 68.9768 64.7276 68.9768 67.375C68.9768 71.1658 72.1103 74.2499 75.9618 74.2499C79.8133 74.2499 82.9468 71.1658 82.9468 67.375C82.9468 63.6437 79.9106 60.5995 76.1425 60.5044L75.1435 56.2449C79.7045 54.4971 82.9468 50.1311 82.9468 45.0312C82.9468 41.156 81.0621 37.5639 77.9361 35.3158L80.8277 29.3779C81.3497 29.4982 81.8851 29.5625 82.4229 29.5625C86.2744 29.5625 89.4079 26.4784 89.4079 22.6875C89.4079 18.8966 86.2744 15.8125 82.4229 15.8125ZM79.4543 67.375C79.4543 69.2704 77.8876 70.8124 75.9618 70.8124C74.036 70.8124 72.4693 69.2704 72.4693 67.375C72.4693 65.4795 74.036 63.9375 75.9618 63.9375C77.8876 63.9375 79.4543 65.4795 79.4543 67.375ZM70.723 53.625C65.9464 53.625 61.9918 49.8178 61.9918 45.0312C61.9918 40.2926 65.9086 36.4375 70.723 36.4375C72.1702 36.4375 73.601 36.7917 74.8611 37.4615C74.8613 37.4615 74.8615 37.4617 74.8618 37.4619C77.6946 38.9664 79.4543 41.8668 79.4543 45.0312C79.4543 49.7698 75.5374 53.625 70.723 53.625ZM82.4229 26.125C80.479 26.125 78.9304 24.5736 78.9304 22.6875C78.9304 20.7921 80.4971 19.25 82.4229 19.25C84.3487 19.25 85.9154 20.7921 85.9154 22.6875C85.9154 24.5829 84.3487 26.125 82.4229 26.125Z" fill="#D5CDFD"/>
<path d="M58.8486 13.75C58.8486 9.95912 55.7151 6.87499 51.8636 6.87499C48.012 6.87499 44.8786 9.95912 44.8786 13.75C44.8786 14.3039 44.9484 14.856 45.0824 15.3926L38.9876 18.6225C36.7007 15.5817 33.0739 13.75 29.1623 13.75C26.1635 13.75 23.306 14.8295 21.0886 16.7525L13.2575 9.89621C13.7131 8.98373 13.97 7.95849 13.97 6.87499C13.97 3.08412 10.8365 0 6.98499 0C3.13347 0 0 3.08412 0 6.87499C0 10.6659 3.13347 13.75 6.98499 13.75C8.47175 13.75 9.85041 13.289 10.9843 12.5066L18.8218 19.3686C17.5997 21.2783 16.9386 23.5023 16.9386 25.7812C16.9386 27.208 17.1988 28.624 17.696 29.9521L12.0825 33.1139C10.7792 31.7439 8.94533 30.9375 6.98499 30.9375C3.13347 30.9375 0 34.0216 0 37.8125C0 41.6033 3.13347 44.6875 6.98499 44.6875C10.8365 44.6875 13.97 41.6033 13.97 37.8125C13.97 37.2451 13.8979 36.6796 13.7576 36.1308L19.3631 32.9735C21.3049 35.5368 24.2016 37.2336 27.4161 37.6885V50.3121C22.071 51.0681 17.8336 55.239 17.0654 60.4998H10.1771C9.45628 58.4993 7.51533 57.0623 5.23874 57.0623C2.3501 57.0623 0 59.3754 0 62.2185C0 65.0617 2.3501 67.3748 5.23874 67.3748C7.51515 67.3748 9.45628 65.9377 10.1771 63.9373H17.0664C17.3114 65.6053 17.9097 67.206 18.8216 68.6312L10.9841 75.4931C9.85041 74.7109 8.47175 74.2499 6.98499 74.2499C3.13347 74.2499 0 77.3341 0 81.1249C0 84.9158 3.13347 87.9999 6.98499 87.9999C10.8365 87.9999 13.97 84.9158 13.97 81.1249C13.97 80.0414 13.7131 79.0162 13.2575 78.1037L21.0886 71.2475C23.306 73.1704 26.1635 74.2499 29.1623 74.2499C31.8365 74.2499 34.3798 73.4088 36.4831 71.8549L42.353 77.6322C41.7229 78.6795 41.3861 79.8768 41.3861 81.1249C41.3861 84.9158 44.5196 87.9999 48.3711 87.9999C52.2226 87.9999 55.3561 84.9158 55.3561 81.1249C55.3561 77.3341 52.2226 74.2499 48.3711 74.2499C47.1029 74.2499 45.8865 74.5815 44.8225 75.2016L38.9529 69.4244C40.5311 67.3547 41.3861 64.8511 41.3861 62.2187C41.3861 61.0967 41.23 60.0005 40.9254 58.9414L43.26 58.0428C44.1582 57.6972 44.6016 56.7001 44.2503 55.8162C43.8991 54.9321 42.8863 54.4958 41.988 54.8415L39.5003 55.799C37.5908 52.8283 34.439 50.816 30.9084 50.3119V37.6879C36.8242 36.8512 41.3859 31.8317 41.3859 25.7814C41.3859 24.3686 41.131 22.9663 40.6431 21.6492L46.7387 18.4188C48.0437 19.8065 49.8893 20.625 51.8636 20.625C55.7151 20.625 58.8486 17.5409 58.8486 13.75ZM3.4925 6.87499C3.4925 4.97956 5.05923 3.4375 6.98499 3.4375C8.91076 3.4375 10.4775 4.97956 10.4775 6.87499C10.4775 8.77043 8.91076 10.3125 6.98499 10.3125C5.05923 10.3125 3.4925 8.77043 3.4925 6.87499ZM6.98499 41.25C5.05923 41.25 3.4925 39.7079 3.4925 37.8125C3.4925 35.917 5.05923 34.375 6.98499 34.375C8.90255 34.375 10.4775 35.8998 10.4775 37.8125C10.4775 39.7079 8.91076 41.25 6.98499 41.25ZM5.23874 63.9374C4.27586 63.9374 3.4925 63.1664 3.4925 62.2187C3.4925 61.271 4.27586 60.4999 5.23874 60.4999C6.20163 60.4999 6.98499 61.271 6.98499 62.2187C6.98499 63.1664 6.20163 63.9374 5.23874 63.9374ZM6.98499 84.5624C5.05923 84.5624 3.4925 83.0204 3.4925 81.1249C3.4925 79.2295 5.05923 77.6874 6.98499 77.6874C8.91076 77.6874 10.4775 79.2295 10.4775 81.1249C10.4775 83.0204 8.91076 84.5624 6.98499 84.5624ZM51.8636 81.1249C51.8636 83.0204 50.2968 84.5624 48.3711 84.5624C46.4453 84.5624 44.8786 83.0204 44.8786 81.1249C44.8786 80.2075 45.2421 79.3445 45.9021 78.6948C46.562 78.0451 47.4389 77.6874 48.3711 77.6874C50.2968 77.6874 51.8636 79.2295 51.8636 81.1249ZM37.8936 62.2187C37.8936 66.966 33.9867 70.8124 29.1623 70.8124C24.3247 70.8124 20.4311 66.9483 20.4311 62.2187C20.4311 57.4801 24.3479 53.625 29.1623 53.625C33.9375 53.625 37.8936 57.4306 37.8936 62.2187ZM29.1623 34.375C24.363 34.375 20.4311 30.5499 20.4311 25.7812C20.4311 21.0579 24.3188 17.1875 29.1623 17.1875C33.9375 17.1875 37.8936 20.994 37.8936 25.7812C37.8936 30.5198 33.9767 34.375 29.1623 34.375ZM48.3711 13.75C48.3711 11.8546 49.9378 10.3125 51.8636 10.3125C53.7893 10.3125 55.3561 11.8546 55.3561 13.75C55.3561 15.6454 53.7893 17.1875 51.8636 17.1875C49.946 17.1875 48.3711 15.6626 48.3711 13.75Z" fill="#D5CDFD"/>
</svg>
