<svg width="90" height="88" viewBox="0 0 90 88" fill="none" xmlns="http://www.w3.org/2000/svg">
<path d="M85.2446 7.96138H48.6088L45.667 5.01967C45.0256 4.37852 44.1711 4.0253 43.2607 4.0253C42.3504 4.0253 41.4959 4.37852 40.8521 5.02211L40.5802 5.29502C39.4176 4.66959 38.2018 4.16568 36.944 3.78767V3.40075C36.944 1.52551 35.4184 0 33.543 0H28.901C27.026 0 25.5003 1.52551 25.5003 3.40075V3.78767C24.2424 4.16568 23.0265 4.66976 21.864 5.29502L21.5899 5.01967C20.9486 4.37835 20.094 4.02513 19.1835 4.02513C18.2731 4.02513 17.4186 4.37835 16.7773 5.01949L13.8357 7.96138H4.96765C2.45337 7.96138 0.407715 10.007 0.407715 12.5213V63.9751C0.407715 66.4894 2.45337 68.5351 4.96765 68.5351H30.3832L26.8641 75.6697H24.0013C20.6018 75.6697 17.8361 78.4352 17.8361 81.8348V86.254C17.8361 87.2183 18.618 88 19.5821 88H62.9211H83.0299C86.7656 88 89.8045 84.6453 89.8045 80.5219V38.7883V12.5213C89.8045 10.007 87.7589 7.96138 85.2446 7.96138ZM15.3108 19.1529C15.7213 17.3346 16.4347 15.6142 17.4312 14.0397C17.8673 13.3507 17.7685 12.4515 17.1932 11.8737L16.0298 10.7058L19.1835 7.55211L20.3416 8.71514C20.9192 9.29483 21.8216 9.39592 22.5128 8.95837C24.0961 7.95614 25.817 7.24306 27.6271 6.83886C28.4251 6.66059 28.9925 5.9524 28.9925 5.13473V3.49206H33.4519V5.13473C33.4519 5.9524 34.0194 6.66059 34.8173 6.83886C36.6274 7.24306 38.3481 7.95614 39.9314 8.95837C40.6228 9.39592 41.5252 9.29483 42.1024 8.71514L43.2609 7.55211L46.4146 10.7058L45.2512 11.8737C44.6757 12.4515 44.5769 13.3507 45.0131 14.0397C46.0095 15.6142 46.723 17.3346 47.1334 19.1529C47.3131 19.9491 48.0204 20.5145 48.8367 20.5145H50.4794V24.9738H48.8367C48.0204 24.9738 47.3131 25.5392 47.1334 26.3354C46.7219 28.1588 46.0085 29.8809 45.0131 31.4535C44.5769 32.1425 44.6757 33.0417 45.2512 33.6195L46.412 34.785L43.2607 37.9364L42.1 36.7756C41.5222 36.198 40.6216 36.0982 39.9314 36.535C38.3483 37.5371 36.6276 38.2503 34.8173 38.6545C34.0194 38.8328 33.4519 39.541 33.4519 40.3587V42.0011H28.9925V40.3587C28.9925 39.541 28.4251 38.8328 27.6271 38.6545C25.8168 38.2503 24.096 37.5372 22.5128 36.535C21.8228 36.0983 20.9222 36.1982 20.3443 36.7758L19.1837 37.9364L16.0324 34.785L17.1932 33.6195C17.7685 33.0417 17.8673 32.1427 17.4312 31.4535C16.4359 29.8809 15.7225 28.1588 15.3108 26.3354C15.1311 25.5392 14.4238 24.9738 13.6075 24.9738H11.965V20.5145H13.6077C14.4238 20.5145 15.1311 19.9491 15.3108 19.1529ZM3.89978 63.9751V60.1578H56.1466V65.0432H4.96765C4.37889 65.0432 3.89978 64.5641 3.89978 63.9751ZM34.2772 68.5352H56.1468V75.6699H30.7581L34.2772 68.5352ZM21.3283 81.8348C21.3283 80.3609 22.5275 79.1618 24.0015 79.1618H27.9411C27.9435 79.1618 27.9461 79.1621 27.9486 79.1621C27.9507 79.1621 27.9526 79.1618 27.9547 79.1618H56.1466V80.5219C56.1466 81.9865 56.5316 83.3531 57.1934 84.5079H21.3281V81.8348H21.3283ZM86.3125 80.5219C86.3125 82.6826 84.8095 84.5079 83.0301 84.5079H62.9212C61.142 84.5079 59.6387 82.6826 59.6387 80.5219V38.7883C59.6387 36.6276 61.1419 34.8023 62.9212 34.8023H64.7174V38.7287C64.7174 40.6394 66.274 42.1939 68.1874 42.1939H77.7637C79.6772 42.1939 81.2338 40.6394 81.2338 38.7287V34.8023H83.0301C84.8093 34.8023 86.3125 36.6276 86.3125 38.7883V80.5219ZM68.2094 38.7018V34.8024H77.7417V38.7018H68.2094ZM86.3125 32.2497C85.3394 31.6521 84.2204 31.3104 83.0301 31.3104H62.9212C59.1856 31.3104 56.1466 34.665 56.1466 38.7884V56.6657H3.89978V12.5213C3.89978 11.9425 4.38884 11.4534 4.96765 11.4534H12.5896C12.7249 12.0614 13.0245 12.639 13.4951 13.1094L13.771 13.3863C13.1475 14.5458 12.643 15.7618 12.2627 17.0224H11.8786C10.0008 17.0224 8.47299 18.5502 8.47299 20.428V25.0652C8.47299 26.9404 10.0008 28.4659 11.8786 28.4659H12.2626C12.6432 29.7293 13.1476 30.947 13.7711 32.1069L13.4977 32.3814C12.1723 33.707 12.1723 35.8637 13.4977 37.1889L16.7773 40.4687C18.1044 41.7956 20.2632 41.7955 21.5899 40.4687L21.8616 40.197C23.0248 40.8227 24.2417 41.3274 25.5005 41.7057V42.0926C25.5005 43.9677 27.026 45.4934 28.9012 45.4934H33.5432C35.4184 45.4934 36.9441 43.9679 36.9441 42.0926V41.7057C38.2028 41.3274 39.4197 40.8229 40.5829 40.197L40.8547 40.4688C42.1814 41.7953 44.3401 41.7956 45.6673 40.4688L48.9469 37.1893C50.2723 35.8638 50.2723 33.7071 48.9493 32.384L48.6734 32.1069C49.2966 30.947 49.8012 29.7295 50.1818 28.4661H50.5658C52.4438 28.4661 53.9716 26.9406 53.9716 25.0653V20.4282C53.9716 18.5504 52.4438 17.0226 50.5658 17.0226H50.1817C49.8014 15.762 49.2971 14.546 48.6734 13.3865L48.9469 13.112C49.4183 12.6406 49.7188 12.0621 49.8541 11.4534H85.2448C85.8236 11.4534 86.3127 11.9425 86.3127 12.5213V32.2497H86.3125Z" fill="#D5CDFD"/>
<path d="M31.2198 34.9112C37.9301 34.9112 43.3893 29.4542 43.3893 22.7466C43.3893 16.0391 37.93 10.582 31.2198 10.582C24.5122 10.582 19.0552 16.0391 19.0552 22.7466C19.0552 29.4542 24.5122 34.9112 31.2198 34.9112ZM31.2198 14.0741C36.0044 14.0741 39.8972 17.9646 39.8972 22.7466C39.8972 27.5287 36.0044 31.4192 31.2198 31.4192C26.4377 31.4192 22.5472 27.5287 22.5472 22.7466C22.5472 17.9646 26.4377 14.0741 31.2198 14.0741Z" fill="#D5CDFD"/>
</svg>
