<svg width="120" height="120" viewBox="0 0 120 120" fill="none" xmlns="http://www.w3.org/2000/svg">
<g clip-path="url(#clip0_840_808)">
<path d="M92.7966 27.2042C88.2169 22.6248 80.8032 22.6245 76.2233 27.2042C71.6556 31.7719 71.6553 39.2063 76.224 43.7778C80.7933 48.3443 88.2277 48.3462 92.7966 43.7773C97.3758 39.1981 97.3768 31.7841 92.7966 27.2042ZM89.4821 40.4625C86.7415 43.2033 82.2805 43.2033 79.5385 40.463C76.7975 37.7204 76.7973 33.2593 79.538 30.5187C82.2856 27.7712 86.734 27.7707 89.4821 30.5187C92.2297 33.2661 92.2301 37.7147 89.4821 40.4625Z" fill="#8971C9"/>
<path d="M119.313 0.686506C118.853 0.226429 118.225 -0.0229457 117.572 0.00166359C117.042 0.0206479 104.424 0.527835 89.4253 5.82915C77.4066 10.0727 67.3888 16.1484 59.6499 23.8875C57.9158 25.6216 56.2283 27.4605 54.6137 29.3709C46.9618 24.8667 40.8301 26.279 36.9538 28.3535C28.0286 33.13 22.5042 46.0994 22.5042 55.3759C22.5049 56.3237 23.076 57.1785 23.9516 57.5411C24.2416 57.6613 24.5463 57.7197 24.8481 57.7197C25.4582 57.7197 26.0575 57.4813 26.5059 57.0332C31.2128 52.3263 37.0185 52.6206 38.9151 52.87L39.7358 53.6908C38.1205 57.5345 36.8193 61.3567 35.8649 65.0741C35.5204 66.4194 35.6366 67.843 36.1487 69.1452C33.8922 70.1851 31.7151 71.7121 29.8194 73.6077C23.7864 79.641 22.5613 94.3442 22.5121 94.9672C22.4582 95.6509 22.7062 96.324 23.1911 96.8089C23.6324 97.25 24.2294 97.4954 24.8481 97.4954C24.9095 97.4954 24.9712 97.493 25.0328 97.4881C25.6558 97.4391 40.3595 96.2141 46.3925 90.181C48.2875 88.2861 49.8142 86.1092 50.8541 83.8531C52.2327 84.3953 53.6516 84.4621 54.9275 84.1351C58.6433 83.181 62.465 81.8802 66.3092 80.2646L67.13 81.0854C67.3791 82.9822 67.6735 88.7879 62.9668 93.4944C62.2967 94.1647 62.0961 95.1727 62.4589 96.0484C62.8215 96.9242 63.676 97.4952 64.6241 97.4952C73.9006 97.4952 86.8697 91.9707 91.6463 83.0455C93.7207 79.1696 95.1331 73.0379 90.6289 65.3858C92.5383 63.7719 94.3774 62.0844 96.1123 60.3496C103.851 52.6105 109.927 42.5927 114.17 30.5749C119.472 15.5754 119.979 2.9576 119.998 2.42791C120.021 1.77752 119.773 1.14682 119.313 0.686506ZM27.7443 50.3348C29.2002 43.2888 33.429 35.557 39.1665 32.4862C43.0007 30.4345 47.1915 30.6356 51.6475 33.0747C47.8513 38.0674 44.5511 43.4463 41.8002 49.1263C41.7653 49.1048 41.3434 48.5744 40.5597 48.3977C40.2374 48.3248 34.0361 46.9909 27.7443 50.3348ZM43.078 86.8663C39.8554 90.0889 32.2956 91.7886 27.5174 92.4826C28.2116 87.7042 29.9116 80.1446 33.134 76.9222C34.9387 75.1175 37.0312 73.7493 39.1344 72.9786L47.0216 80.8658C46.251 82.9691 44.8829 85.0616 43.078 86.8663ZM53.7632 79.5943C53.0849 79.768 52.2992 79.513 51.7152 78.9299C48.6831 75.8978 47.4969 74.7116 47.1247 74.3397C46.4422 73.6572 44.7686 71.9835 41.0718 68.2865C40.4872 67.7008 40.2322 66.9154 40.4054 66.2383C41.1561 63.3147 42.1379 60.3151 43.3318 57.2868L62.7134 76.6684C59.6846 77.8625 56.6856 78.8441 53.7632 79.5943ZM87.514 80.8337C84.4432 86.571 76.7117 90.8 69.6659 92.2557C71.9124 88.0283 72.4076 82.6468 71.5869 79.3836C71.3963 78.6257 70.9018 78.2446 70.8741 78.1998C76.5537 75.449 81.9324 72.1487 86.9255 68.3526C89.3646 72.809 89.5655 77.0003 87.514 80.8337ZM92.7982 57.0351C90.6863 59.1468 88.4121 61.187 86.0389 63.0988C80.3337 67.6926 74.0544 71.5836 67.355 74.6811L45.3191 52.6457C48.4166 45.9459 52.3077 39.6665 56.901 33.9621C58.8144 31.5872 60.8544 29.3128 62.9654 27.202C69.9087 20.2584 78.8698 14.7323 89.607 10.7545L109.246 30.3932C105.268 41.1302 99.7423 50.0913 92.7982 57.0351ZM110.932 25.4501L94.5502 9.06821C103.475 6.29603 111.24 5.25798 115.116 4.88486C114.742 8.76118 113.704 16.5258 110.932 25.4501Z" fill="#8971C9"/>
<path d="M56.3367 96.8088C55.421 95.8935 53.937 95.894 53.022 96.8092L46.3939 103.44C45.4789 104.355 45.4791 105.839 46.3943 106.754C47.31 107.669 48.7941 107.669 49.7091 106.754L56.3372 100.123C57.2522 99.2078 57.252 97.7237 56.3367 96.8088Z" fill="#8971C9"/>
<path d="M23.1923 63.6637C22.2773 62.7482 20.7935 62.7482 19.8778 63.6632L13.2473 70.2913C12.3319 71.2063 12.3316 72.6904 13.2466 73.6059C14.1614 74.5209 15.6452 74.5218 16.5611 73.6063L23.1916 66.9782C24.1071 66.0632 24.1073 64.5792 23.1923 63.6637Z" fill="#8971C9"/>
<path d="M39.7646 100.125C38.8499 99.2097 37.3656 99.2097 36.4501 100.125L20.5736 115.999C19.6581 116.914 19.6581 118.398 20.5734 119.313C21.4881 120.229 22.9724 120.229 23.8879 119.314L39.7644 103.439C40.6799 102.524 40.6799 101.04 39.7646 100.125Z" fill="#8971C9"/>
<path d="M21.0147 100.125C20.0997 99.2097 18.6154 99.2097 17.7001 100.125L1.82359 115.999C0.908125 116.914 0.908125 118.398 1.82336 119.313C2.73812 120.229 4.22242 120.229 5.13788 119.314L21.0144 103.439C21.9299 102.524 21.9299 101.04 21.0147 100.125Z" fill="#8971C9"/>
<path d="M19.8755 80.2355C18.9605 79.3205 17.4762 79.3205 16.561 80.2358L0.686761 96.1123C-0.228471 97.0278 -0.228471 98.5116 0.686996 99.427C1.60223 100.342 3.08629 100.342 4.00152 99.4268L19.8757 83.5503C20.7909 82.6348 20.7909 81.151 19.8755 80.2355Z" fill="#8971C9"/>
</g>
<defs>
<clipPath id="clip0_840_808">
<rect width="120" height="120" fill="white"/>
</clipPath>
</defs>
</svg>
